<svg width="25" height="24" viewBox="0 0 25 24" fill="none" xmlns="http://www.w3.org/2000/svg">
<circle cx="12.1537" cy="12" r="12" fill="white"/>
<path d="M9.24589 16.6154V9.14179H6.76182V16.6154H9.24589ZM8.00418 8.12079C8.87041 8.12079 9.4096 7.54691 9.4096 6.82974C9.39347 6.09641 8.87045 5.53845 8.02061 5.53845C7.17092 5.53845 6.61526 6.09642 6.61526 6.82974C6.61526 7.54694 7.15432 8.12079 7.98796 8.12079H8.0041H8.00418ZM10.6208 16.6154H13.1049V12.4418C13.1049 12.2184 13.121 11.9953 13.1866 11.8356C13.3662 11.3893 13.7749 10.9271 14.4611 10.9271C15.36 10.9271 15.7196 11.6124 15.7196 12.6171V16.6153H18.2035V12.33C18.2035 10.0344 16.978 8.96634 15.3436 8.96634C14.0036 8.96634 13.4152 9.71538 13.0883 10.2255H13.1049V9.14164H10.6209C10.6535 9.84292 10.6209 16.6152 10.6209 16.6152L10.6208 16.6154Z" fill="#25201D"/>
</svg>
